<svg height="512" viewBox="-5.5 -2 75 75" width="512" xmlns="http://www.w3.org/2000/svg"><path d="m59 15h-54a2.006 2.006 0 0 0 -2 2v38a2.006 2.006 0 0 0 2 2h28v-30l8-8h20v-2a2.006 2.006 0 0 0 -2-2zm-40 18h-1v6l-3 2-3-2v-6h-1v-4h1v-6h6v6h1z" fill="#9bc9ff"/><g fill="#57a4ff"><path d="m59 14h-12v-9a3 3 0 0 0 -3-3h-24a3 3 0 0 0 -3 3v9h-12a3 3 0 0 0 -3 3v38a3 3 0 0 0 3 3h27v3a1 1 0 0 0 1 1h28a1 1 0 0 0 1-1v-44a3 3 0 0 0 -3-3zm-40-9a1 1 0 0 1 1-1h24a1 1 0 0 1 1 1v9h-2v-7a1 1 0 0 0 -1-1h-20a1 1 0 0 0 -1 1v7h-2zm22 9h-18v-6h18zm-36 2h54a1 1 0 0 1 1 1v1h-19v.009a.991.991 0 0 0 -.707.284l-8 8a1 1 0 0 0 -.284.707h-.009v3h-12v-1a1 1 0 0 0 -1-1v-5a1 1 0 0 0 -1-1h-6a1 1 0 0 0 -1 1v5a1 1 0 0 0 -1 1v1h-6v-13a1 1 0 0 1 1-1zm35 5.414v4.586h-4.586zm-22 10.586h-6v-2h6zm-1-4h-4v-4h4zm-4 6h4v4.465l-2 1.335-2-1.333zm-8 22a1 1 0 0 1 -1-1v-23h6v1a1 1 0 0 0 1 1v5a1 1 0 0 0 .445.832l3 2a1 1 0 0 0 1.11 0l3-2a1 1 0 0 0 .445-.832v-5a1 1 0 0 0 1-1v-1h12v24zm55 4h-26v-32h7a1 1 0 0 0 1-1v-7h18z"/><path d="m44 24h4v2h-4z"/><path d="m50 24h8v2h-8z"/><path d="m36 30h12v2h-12z"/><path d="m50 30h8v2h-8z"/><path d="m36 36h22v2h-22z"/><path d="m36 42h22v2h-22z"/><path d="m36 48h22v2h-22z"/><path d="m36 54h4v2h-4z"/><path d="m42 54h4v2h-4z"/><path d="m48 54h4v2h-4z"/><path d="m54 54h4v2h-4z"/></g></svg>