<?xml version="1.0" encoding="iso-8859-1"?>
<!-- Generator: Adobe Illustrator 19.0.0, SVG Export Plug-In . SVG Version: 6.00 Build 0)  -->
<svg version="1.1" id="Capa_1" xmlns="http://www.w3.org/2000/svg" xmlns:xlink="http://www.w3.org/1999/xlink" x="0px" y="0px"
	 viewBox="-100 -100 650 650" style="enable-background:new 0 0 0 0;" xml:space="preserve">
<path style="fill:#EDE9E8;" d="M509.948,278.497c-41.995-72.594-153.16-127.488-253.949-127.488S44.219,205.903,2.224,278.497
	c-2.701,4.499-2.701,10.498,0,14.999c41.995,72.592,152.985,127.488,253.775,127.488s211.954-54.896,253.949-127.488
	C512.649,288.995,512.649,282.996,509.948,278.497z"/>
<path style="fill:#DFD7D5;" d="M509.948,293.496c-41.995,72.592-153.16,127.488-253.949,127.488V151.01
	c100.79,0,211.954,54.894,253.949,127.488C512.649,282.996,512.649,288.995,509.948,293.496z"/>
<path style="fill:#73BCFF;" d="M255.999,151.01c-74.392,0-134.987,60.593-134.987,134.987c0,74.392,60.595,134.987,134.987,134.987
	s134.987-60.595,134.987-134.987C390.986,211.603,330.391,151.01,255.999,151.01z"/>
<path style="fill:#3AAAFF;" d="M390.986,285.997c0,74.392-60.595,134.987-134.987,134.987V151.01
	C330.391,151.01,390.986,211.603,390.986,285.997z"/>
<path style="fill:#3E5959;" d="M255.999,211.004c-41.396,0-74.993,33.597-74.993,74.993s33.597,74.993,74.993,74.993
	s74.993-33.597,74.993-74.993S297.395,211.004,255.999,211.004z"/>
<path style="fill:#384949;" d="M330.992,285.997c0,41.396-33.597,74.993-74.993,74.993V211.004
	C297.395,211.004,330.992,244.601,330.992,285.997z"/>
<path style="fill:#3E5959;" d="M508.074,206.203c-2.699,3.301-6.898,5.1-11.099,5.1c-3.6,0-7.199-1.201-9.9-3.9
	c-67.493-59.694-165.083-86.392-231.076-86.392S92.416,147.71,24.923,207.404c-6.3,5.699-15.599,5.098-20.998-1.201
	c-5.699-5.998-5.099-15.597,1.199-20.997C69.618,127.911,168.709,91.016,256,91.016s186.382,36.895,250.877,94.191
	C513.173,190.606,513.774,200.205,508.074,206.203z"/>
<path style="fill:#EDE9E8;" d="M270.998,285.997c0,8.398-6.598,14.999-14.999,14.999c-8.4,0-14.999-6.6-14.999-14.999
	c0-8.4,6.598-14.999,14.999-14.999C264.399,270.998,270.998,277.596,270.998,285.997z"/>
<path style="fill:#DFD7D5;" d="M270.998,285.997c0,8.398-6.598,14.999-14.999,14.999v-29.997
	C264.399,270.998,270.998,277.596,270.998,285.997z"/>
<path style="fill:#384949;" d="M508.074,206.203c-2.699,3.301-6.898,5.1-11.099,5.1c-3.6,0-7.199-1.201-9.9-3.9
	c-67.493-59.694-165.083-86.392-231.076-86.392V91.016c87.29,0,186.382,36.895,250.877,94.191
	C513.173,190.606,513.774,200.205,508.074,206.203z"/>
<g>
</g>
<g>
</g>
<g>
</g>
<g>
</g>
<g>
</g>
<g>
</g>
<g>
</g>
<g>
</g>
<g>
</g>
<g>
</g>
<g>
</g>
<g>
</g>
<g>
</g>
<g>
</g>
<g>
</g>
</svg>
