<?xml version="1.0"?>
<svg xmlns="http://www.w3.org/2000/svg" viewBox="0 0 64 64" width="100" height="100"><g id="Product"><polygon points="16 10 16 30 32 38.14 32 17 16 10" style="fill:#e5cbaa"/><polygon points="32 17 32 38.14 48 30.1 48 10 32 17" style="fill:#ffe7c9"/><path d="M14.992,53.512A6,6,0,0,0,16,50.183V47.668a3.994,3.994,0,0,0-.217-1.3L12.67,37.31a2,2,0,0,0-2.35-1.44.355.355,0,0,0-.1.02.5.5,0,0,0-.13.05,1.975,1.975,0,0,0-1.35,1.88,1.861,1.861,0,0,0,.07.52l.42,1.58,1.39,5.18L9.23,39.92l-.42-1.58a1.861,1.861,0,0,1-.07-.52,1.975,1.975,0,0,1,1.35-1.88.5.5,0,0,1,.13-.05.355.355,0,0,1,.1-.02l2.2-8.22a1.978,1.978,0,0,0-.81-2.17,1.834,1.834,0,0,0-.6-.28,1.861,1.861,0,0,0-.52-.07,1.987,1.987,0,0,0-1.93,1.48L3.324,43a4.015,4.015,0,0,0-.119,2.023l1.543,5.992A8.026,8.026,0,0,1,5,53.013V55h9Z" style="fill:#efebe5"/><path d="M59,53.013a8.026,8.026,0,0,1,.252-1.994L60.8,45.027A4.015,4.015,0,0,0,60.676,43L55.34,26.61a1.987,1.987,0,0,0-1.93-1.48,1.861,1.861,0,0,0-.52.07,1.834,1.834,0,0,0-.6.28,1.978,1.978,0,0,0-.81,2.17l2.2,8.22a.355.355,0,0,1,.1.02.5.5,0,0,1,.13.05,1.975,1.975,0,0,1,1.35,1.88,1.861,1.861,0,0,1-.07.52l-.42,1.58L53.38,45.1l1.39-5.18.42-1.58a1.861,1.861,0,0,0,.07-.52,1.975,1.975,0,0,0-1.35-1.88.5.5,0,0,0-.13-.05.355.355,0,0,0-.1-.02,2,2,0,0,0-2.35,1.44l-3.113,9.058a3.994,3.994,0,0,0-.217,1.3v2.515a6,6,0,0,0,1.008,3.329L50,55h9Z" style="fill:#efebe5"/><polygon points="17 55 14 55 5 55 3 55 3 61 17 61 17 55" style="fill:#006df0"/><polygon points="50 55 47 55 47 61 61 61 61 55 59 55 50 55" style="fill:#006df0"/><polygon points="32 17 48 10 32 3 16 10 32 17" style="fill:#ffe2bd"/><polygon points="22 19 26 21 26 14.375 22 12.625 22 19" style="fill:#ffaf46"/><polygon points="33.43 11.12 29.259 9.302 22 12.625 26 14.375 26 14.37 33.43 11.12" style="fill:#ffaf46"/><path d="M17,54H15.862A6.981,6.981,0,0,0,17,50.183V47.668a4.983,4.983,0,0,0-.271-1.625L13.636,37.05a3.006,3.006,0,0,0-2.036-2.1l1.885-7.043a2.966,2.966,0,0,0-1.19-3.242,2.8,2.8,0,0,0-.9-.428,2.83,2.83,0,0,0-.8-.111A2.966,2.966,0,0,0,7.709,26.3L2.373,42.7a5.048,5.048,0,0,0-.136,2.581l1.542,5.992A6.991,6.991,0,0,1,4,53.013V54H3a1,1,0,0,0-1,1v6a1,1,0,0,0,1,1H17a1,1,0,0,0,1-1V55A1,1,0,0,0,17,54ZM5.716,50.77l-1.53-5.939a3,3,0,0,1,.089-1.517L9.628,26.86a.988.988,0,0,1,1.221-.694.884.884,0,0,1,.306.146.983.983,0,0,1,.4,1.079L9.49,35.1A2.972,2.972,0,0,0,7.74,37.82a2.752,2.752,0,0,0,.1.777l1.81,6.762a1,1,0,1,0,1.932-.518L9.769,38.056a.837.837,0,0,1-.029-.236.971.971,0,0,1,.663-.93c.023-.008.118-.04.133-.043a1.013,1.013,0,0,1,1.188.788l3.113,9.059a2.981,2.981,0,0,1,.163.974v2.515a4.987,4.987,0,0,1-.84,2.774L13.465,54H6v-.987A9.032,9.032,0,0,0,5.716,50.77ZM16,60H4V56H16Z"/><path d="M46,55v6a1,1,0,0,0,1,1H61a1,1,0,0,0,1-1V55a1,1,0,0,0-1-1H60v-.987a6.991,6.991,0,0,1,.221-1.745l1.542-5.992a5.048,5.048,0,0,0-.136-2.581L56.291,26.3a2.966,2.966,0,0,0-2.881-2.17,2.83,2.83,0,0,0-.8.111,2.8,2.8,0,0,0-.9.428,2.966,2.966,0,0,0-1.19,3.242L52.4,34.954a3.006,3.006,0,0,0-2.036,2.1l-3.093,8.993A4.983,4.983,0,0,0,47,47.668v2.515A6.981,6.981,0,0,0,48.138,54H47A1,1,0,0,0,46,55Zm12-1.987V54H50.535l-.695-1.043A4.987,4.987,0,0,1,49,50.183V47.668a2.981,2.981,0,0,1,.163-.974l3.113-9.059a1.013,1.013,0,0,1,1.188-.788c.015,0,.11.035.133.043a.971.971,0,0,1,.663.93.837.837,0,0,1-.029.236l-1.817,6.785a1,1,0,0,0,1.932.518l1.81-6.762a2.752,2.752,0,0,0,.1-.777A2.972,2.972,0,0,0,54.51,35.1l-2.064-7.71a.983.983,0,0,1,.4-1.079.884.884,0,0,1,.306-.146.988.988,0,0,1,1.221.694l5.353,16.454a3,3,0,0,1,.089,1.517l-1.53,5.939A9.032,9.032,0,0,0,58,53.013ZM48,56H60v4H48Z"/><path d="M48.4,9.084l-16-7a1,1,0,0,0-.8,0l-16,7A1,1,0,0,0,15,10V30a1,1,0,0,0,.546.891l16,8.14A1,1,0,0,0,32,39.14a1.011,1.011,0,0,0,.449-.106l16-8.04A1,1,0,0,0,49,30.1V10A1,1,0,0,0,48.4,9.084ZM32,4.091,45.505,10,32,15.909l-3.51-1.536,5.341-2.337a1,1,0,0,0,0-1.832L29.54,8.333a1,1,0,0,0-.8,0l-7.031,3.073L18.5,10ZM23,14.154l2,.875v4.353l-2-1Zm1.2-1.656,4.936-2.157,1.79.781L26,13.281ZM17,11.529l4,1.75V19a1,1,0,0,0,.553.895l4,2A1,1,0,0,0,27,21V15.9l4,1.75V36.509L17,29.387ZM33,36.518V17.654l14-6.125V29.483Z"/><path d="M38.558,29.233l-4.007,2.014a1,1,0,0,0,.9,1.787l4.007-2.014a1,1,0,0,0-.9-1.787Z"/><path d="M35,29.14a1,1,0,0,0,.448-.106l3.95-1.985a1,1,0,1,0-.9-1.787l-3.949,1.985A1,1,0,0,0,35,29.14Z"/></g></svg>
